<?xml version="1.0" standalone="no"?><!DOCTYPE svg PUBLIC "-//W3C//DTD SVG 1.1//EN" "http://www.w3.org/Graphics/SVG/1.1/DTD/svg11.dtd"><svg t="1570372597094" class="icon" viewBox="0 0 1024 1024" version="1.1" xmlns="http://www.w3.org/2000/svg" p-id="14109" xmlns:xlink="http://www.w3.org/1999/xlink" width="200" height="200"><defs><style type="text/css"></style></defs><path d="M384.3072 13.0048C281.6 30.72 262.9632 69.12 262.9632 139.3664v92.16H505.856v30.72H171.8272c-70.656 0-132.5056 42.496-151.7568 122.88-22.2208 92.16-23.1424 150.2208 0 246.784 17.3056 71.68 58.368 122.88 129.024 122.88h83.3536V645.12a154.3168 154.3168 0 0 1 151.8592-151.04h242.688a122.88 122.88 0 0 0 121.344-122.88V139.1616c0-65.8432-55.3984-115.2-121.344-126.3616a748.9536 748.9536 0 0 0-242.688 0.2048zM368.64 77.5168a46.2848 46.2848 0 1 1-45.6704 46.3872A46.2848 46.2848 0 0 1 368.64 77.5168z m421.2736 184.9344v107.9296a155.8528 155.8528 0 0 1-151.7568 153.6h-242.688a123.8016 123.8016 0 0 0-121.344 122.88v232.3456c0 65.8432 57.2416 104.5504 121.344 122.88a408.2688 408.2688 0 0 0 242.688 0c61.44-17.7152 121.344-53.3504 121.344-122.88v-92.16H517.0176v-30.72H880.64c70.656 0 96.768-49.3568 121.344-122.88 25.4976-76.0832 24.2688-149.2992 0-246.784-17.5104-70.2464-50.688-122.88-121.344-122.88h-91.136zM653.312 848.2816a46.2848 46.2848 0 1 1-45.6704 46.08 45.8752 45.8752 0 0 1 45.6704-46.08z" fill="#fa541c" p-id="14110"></path></svg>