<?xml version="1.0" standalone="no"?><!DOCTYPE svg PUBLIC "-//W3C//DTD SVG 1.1//EN" "http://www.w3.org/Graphics/SVG/1.1/DTD/svg11.dtd"><svg t="1570370213159" class="icon" viewBox="0 0 1024 1024" version="1.1" xmlns="http://www.w3.org/2000/svg" p-id="4164" xmlns:xlink="http://www.w3.org/1999/xlink" width="200" height="200"><defs><style type="text/css"></style></defs><path d="M675.2 678.2s9.3 124.3-82.9 124.3c-92.1 0-108.5-141.9-41.4-207.1-66.1 0-207.1 64.1-207.1 165.7-50.5 0-91-67.1-124.3-124.3-40.6 68-124.3 73.5-124.3 165.7 0 92.2 124.3 124.3 124.3 124.3h124.3c-50.2 0-165.7-62.4-165.7-124.3 0-42 34.9-44.8 41.4-82.9 21.1 137.9 169.3 124.3 207.1 124.3-34.8-69.4 0.3-122.8 41.4-165.7-44.1 94.9 31.4 207.1 124.3 207.1s124.3-82.8 124.3-82.8v41.4c0 48.4-82.9 82.9-82.9 82.9h82.9s82.9-2.5 82.9-82.9c0-111.1-124.3-165.7-124.3-165.7z m-290-290s-41.4-41.7-41.4-82.9c0-51.8 82.9-64.1 82.9-124.3 0-53.5-124.3-82.9-124.3-82.9s41.4 34.9 41.4 82.9-82.9 49.9-82.9 124.3 124.3 82.9 124.3 82.9z m497.1-82.8H758c-49.7 0-82.9 32.1-82.9 82.9 0 43.5-37.1 82.9-82.9 82.9H260.9c-45.8 0-82.8-35.7-82.8-82.9v-41.4s0.4-41.4-41.4-41.4-41.4 41.4-41.4 41.4v41.4C95.3 479.8 169.5 554 261 554h331.4c91.5 0 165.7-74.2 165.7-165.7h124.3s41.4 5.5 41.4-41.4c0-47.1-41.5-41.5-41.5-41.5z m-289.9 82.8S551 346.5 551 305.3c0-51.8 82.9-64.1 82.9-124.3 0-53.5-124.3-82.9-124.3-82.9S551 133 551 181s-82.8 49.9-82.8 124.3 124.2 82.9 124.2 82.9z" p-id="4165" fill="#fa541c"></path></svg>