<?xml version="1.0" standalone="no"?><!DOCTYPE svg PUBLIC "-//W3C//DTD SVG 1.1//EN" "http://www.w3.org/Graphics/SVG/1.1/DTD/svg11.dtd"><svg t="1570372667504" class="icon" viewBox="0 0 1024 1024" version="1.1" xmlns="http://www.w3.org/2000/svg" p-id="16899" xmlns:xlink="http://www.w3.org/1999/xlink" width="200" height="200"><defs><style type="text/css"></style></defs><path d="M512 1024C229.248 1024 0 794.752 0 512S229.248 0 512 0s512 229.248 512 512-229.248 512-512 512z m-151.338667-213.333333a189.44 189.44 0 0 0 133.376-53.973334 185.045333 185.045333 0 0 0 56.362667-124.586666h0.256V357.632c0-61.226667 50.517333-110.933333 112.682667-110.933333s112.64 49.706667 112.64 110.933333-50.474667 110.933333-112.64 110.933333a38.485333 38.485333 0 0 0-38.741334 38.144c0 21.077333 17.493333 38.144 38.741334 38.144 104.746667 0 189.994667-83.968 189.994666-187.093333S768.085333 170.666667 663.338667 170.666667a190.464 190.464 0 0 0-133.589334 54.229333 184.832 184.832 0 0 0-56.149333 125.013333h-0.256v273.792c0 61.226667-50.517333 110.933333-112.682667 110.933334s-112.64-49.706667-112.64-110.933334 50.474667-110.933333 112.64-110.933333a38.4 38.4 0 0 0 38.741334-38.144 38.485333 38.485333 0 0 0-38.741334-38.144C255.914667 436.48 170.666667 520.448 170.666667 623.573333S255.914667 810.666667 360.661333 810.666667z" p-id="16900" fill="#fa541c"></path></svg>