<?xml version="1.0" standalone="no"?><!DOCTYPE svg PUBLIC "-//W3C//DTD SVG 1.1//EN" "http://www.w3.org/Graphics/SVG/1.1/DTD/svg11.dtd"><svg t="1570372686136" class="icon" viewBox="0 0 1170 1024" version="1.1" xmlns="http://www.w3.org/2000/svg" p-id="17752" xmlns:xlink="http://www.w3.org/1999/xlink" width="228.515625" height="200"><defs><style type="text/css"></style></defs><path d="M901.558857 577.024h208.018286V512h-208.018286V375.442286c83.236571-19.456 173.348571-77.970286 173.348572-221.037715h-69.339429c0 156.013714-152.576 162.523429-173.348571 162.523429H346.697143c-6.948571 0-173.348571 0-173.348572-162.523429h-69.412571c0 136.557714 90.185143 195.072 173.348571 221.037715V512H69.412571v65.024h208.091429v97.499429c0 39.058286 6.875429 71.533714 20.772571 104.009142-83.236571 13.019429-194.194286 71.533714-194.194285 221.110858h69.339428c0-136.557714 110.957714-156.086857 159.524572-162.596572 55.515429 78.043429 152.576 130.048 256.585143 130.048 110.957714 0 201.142857-51.931429 256.585142-130.048 41.691429 6.582857 159.524571 26.038857 159.524572 162.596572h69.339428c0-149.577143-110.957714-208.091429-194.194285-221.110858 13.897143-32.475429 20.845714-64.950857 20.845714-104.009142V577.097143z m-312.100571 325.046857c-131.730286 0-242.688-104.009143-242.688-227.474286v-292.571428h208.018285v390.070857h69.339429V381.952h208.091429v292.571429c0 123.611429-110.957714 227.547429-242.761143 227.547428z" fill="#fa541c" p-id="17753"></path><path d="M589.531429 24.356571c-131.803429 0-242.834286 104.082286-242.834286 227.547429h485.522286c0-123.465143-110.957714-227.474286-242.761143-227.474286zM429.933714 186.953143c27.721143-58.514286 90.112-97.572571 159.451429-97.572572 69.339429 0 131.803429 39.058286 159.524571 97.572572H430.006857z" fill="#fa541c" p-id="17754"></path></svg>