<?xml version="1.0" standalone="no"?><!DOCTYPE svg PUBLIC "-//W3C//DTD SVG 1.1//EN" "http://www.w3.org/Graphics/SVG/1.1/DTD/svg11.dtd"><svg t="1570372651127" class="icon" viewBox="0 0 1219 1024" version="1.1" xmlns="http://www.w3.org/2000/svg" p-id="16035" xmlns:xlink="http://www.w3.org/1999/xlink" width="238.0859375" height="200"><defs><style type="text/css"></style></defs><path d="M418.830019 585.625262h182.04217v42.773259H418.830019z" fill="#fa541c" p-id="16036"></path><path d="M965.570501 19.954032H73.881083c-15.758569 0-28.651944 12.893375-28.651943 28.651944v924.229839c0 15.758569 12.893375 28.651944 28.651943 28.651944h891.587089c15.860897 0 28.754272-12.893375 28.754272-28.651944V48.605976c0-15.758569-12.893375-28.651944-28.651943-28.651944z m-25.78675 54.438693v134.97112h-840.115918V74.392725h840.115918z m-840.115918 872.656341V265.644449h840.115918v681.404617h-840.115918z" fill="#fa541c" p-id="16037"></path><path d="M162.069793 162.105909a28.24263 28.24263 0 1 0 39.940413-39.941808 28.24263 28.24263 0 1 0-39.940413 39.941808Z" fill="#fa541c" p-id="16038"></path><path d="M236.319406 148.610358a28.24263 28.24263 0 1 0 54.973435-12.980987 28.24263 28.24263 0 1 0-54.973435 12.980987Z" fill="#fa541c" p-id="16039"></path><path d="M325.486753 162.106509a28.24263 28.24263 0 1 0 39.940413-39.941808 28.24263 28.24263 0 1 0-39.940413 39.941808Z" fill="#fa541c" p-id="16040"></path><path d="M418.830019 499.567103H780.765464v42.977915H418.830019z" fill="#fa541c" p-id="16041"></path><path d="M1160.813031 219.289697h19.544719v1.841911h-19.544719zM1160.813031 241.290297h19.544719v1.944239h-19.544719z" fill="#fa541c" p-id="16042"></path><path d="M1218.321575 220.824623l-5.730389-5.730389c-0.306985-0.306985-0.306985-0.920955 0-1.22794l0.102329-0.102329c0.306985-0.306985 0.920955-0.306985 1.22794 0l5.730389 5.730389c0.306985 0.306985 0.306985 0.920955 0 1.22794l-0.102329 0.102329c-0.306985 0.409313-0.920955 0.409313-1.22794 0z" fill="#fa541c" p-id="16043"></path></svg>